{
  "accessors": [
    {
      "bufferView": 2,
      "componentType": 5126,
      "count": 1129,
      "max": [
        1.038902759552002,
        1.038902759552002,
        3.4242544174194336
      ],
      "min": [
        -1.038902759552002,
        -1.038902759552002,
        -0.0005029113963246346
      ],
      "type": "VEC3"
    },
    {
      "bufferView": 2,
      "byteOffset": 13548,
      "componentType": 5126,
      "count": 1129,
      "max": [
        1.0,
        1.0,
        1.0
      ],
      "min": [
        -1.0,
        -1.0,
        -0.9999955892562866
      ],
      "type": "VEC3"
    },
    {
      "bufferView": 1,
      "componentType": 5126,
      "count": 1129,
      "max": [
        0.9994463324546814,
        0.9951443672180176
      ],
      "min": [
        0.005114066880196333,
        0.0054693520069122314
      ],
      "type": "VEC2"
    },
    {
      "bufferView": 0,
      "componentType": 5125,
      "count": 2235,
      "type": "SCALAR"
    },
    {
      "bufferView": 2,
      "byteOffset": 27096,
      "componentType": 5126,
      "count": 2800,
      "max": [
        0.7278797626495361,
        1.3786802291870117,
        3.8053386211395264
      ],
      "min": [
        -1.0735117197036743,
        -0.9784727096557617,
        1.8733298778533936
      ],
      "type": "VEC3"
    },
    {
      "bufferView": 2,
      "byteOffset": 60696,
      "componentType": 5126,
      "count": 2800,
      "max": [
        0.9966819286346436,
        0.9995304942131042,
        0.9999253749847412
      ],
      "min": [
        -0.9995505213737488,
        -0.9996663928031921,
        -0.999786376953125
      ],
      "type": "VEC3"
    },
    {
      "bufferView": 1,
      "byteOffset": 9032,
      "componentType": 5126,
      "count": 2800,
      "max": [
        0.5102781653404236,
        1.0028969049453735
      ],
      "min": [
        0.00025653839111328125,
        0.014740929007530212
      ],
      "type": "VEC2"
    },
    {
      "bufferView": 0,
      "byteOffset": 8940,
      "componentType": 5125,
      "count": 5580,
      "type": "SCALAR"
    },
    {
      "bufferView": 2,
      "byteOffset": 94296,
      "componentType": 5126,
      "count": 757,
      "max": [
        1.2581156492233276,
        1.2581156492233276,
        2.094721555709839
      ],
      "min": [
        -1.2581156492233276,
        -1.2581156492233276,
        -1.355538249015808
      ],
      "type": "VEC3"
    },
    {
      "bufferView": 2,
      "byteOffset": 103380,
      "componentType": 5126,
      "count": 757,
      "max": [
        0.9981289505958557,
        0.9996313452720642,
        1.0
      ],
      "min": [
        -0.9989745020866394,
        -0.9968005418777466,
        -0.9965231418609619
      ],
      "type": "VEC3"
    },
    {
      "bufferView": 1,
      "byteOffset": 31432,
      "componentType": 5126,
      "count": 757,
      "max": [
        0.864431619644165,
        0.9935171604156494
      ],
      "min": [
        0.011342175304889679,
        0.030013471841812134
      ],
      "type": "VEC2"
    },
    {
      "bufferView": 0,
      "byteOffset": 31260,
      "componentType": 5125,
      "count": 1683,
      "type": "SCALAR"
    },
    {
      "bufferView": 2,
      "byteOffset": 112464,
      "componentType": 5126,
      "count": 2792,
      "max": [
        1.161208987236023,
        1.3344248533248901,
        2.3234012126922607
      ],
      "min": [
        -1.4425393342971802,
        -1.377487063407898,
        0.4770989418029785
      ],
      "type": "VEC3"
    },
    {
      "bufferView": 2,
      "byteOffset": 145968,
      "componentType": 5126,
      "count": 2792,
      "max": [
        0.9997223615646362,
        0.9954220652580261,
        0.9777590036392212
      ],
      "min": [
        -0.9998048543930054,
        -0.9988532662391663,
        -0.9930828809738159
      ],
      "type": "VEC3"
    },
    {
      "bufferView": 1,
      "byteOffset": 37488,
      "componentType": 5126,
      "count": 2792,
      "max": [
        0.5102781653404236,
        1.0028969049453735
      ],
      "min": [
        0.00025653839111328125,
        0.014740942977368832
      ],
      "type": "VEC2"
    },
    {
      "bufferView": 0,
      "byteOffset": 37992,
      "componentType": 5125,
      "count": 5580,
      "type": "SCALAR"
    }
  ],
  "asset": {
    "extras": {
      "author": "Khoa Nguyen (https://sketchfab.com/ngdkh)",
      "license": "CC-BY-4.0 (http://creativecommons.org/licenses/by/4.0/)",
      "source": "https://sketchfab.com/3d-models/vietnamese-bonsai-d2edb3e196494af48f516ba7466414c9",
      "title": "Vietnamese bonsai"
    },
    "generator": "Sketchfab-16.75.0",
    "version": "2.0"
  },
  "bufferViews": [
    {
      "buffer": 0,
      "byteLength": 60312,
      "name": "floatBufferViews",
      "target": 34963
    },
    {
      "buffer": 0,
      "byteLength": 59824,
      "byteOffset": 60312,
      "byteStride": 8,
      "name": "floatBufferViews",
      "target": 34962
    },
    {
      "buffer": 0,
      "byteLength": 179472,
      "byteOffset": 120136,
      "byteStride": 12,
      "name": "floatBufferViews",
      "target": 34962
    }
  ],
  "buffers": [
    {
      "byteLength": 299608,
      "uri": "scene.bin"
    }
  ],
  "images": [
    {
      "uri": "textures/material_baseColor.png"
    },
    {
      "uri": "textures/trees_baseColor.png"
    }
  ],
  "materials": [
    {
      "doubleSided": true,
      "name": "material",
      "pbrMetallicRoughness": {
        "baseColorTexture": {
          "index": 0
        },
        "metallicFactor": 0.0,
        "roughnessFactor": 0.8211145618000169
      }
    },
    {
      "alphaMode": "BLEND",
      "doubleSided": true,
      "name": "trees",
      "pbrMetallicRoughness": {
        "baseColorTexture": {
          "index": 1
        },
        "metallicFactor": 0.0,
        "roughnessFactor": 0.8211145618000169
      }
    }
  ],
  "meshes": [
    {
      "name": "Cube_Pot_0",
      "primitives": [
        {
          "attributes": {
            "NORMAL": 1,
            "POSITION": 0,
            "TEXCOORD_0": 2
          },
          "indices": 3,
          "material": 0,
          "mode": 4
        }
      ]
    },
    {
      "name": "Cube_trees_0",
      "primitives": [
        {
          "attributes": {
            "NORMAL": 5,
            "POSITION": 4,
            "TEXCOORD_0": 6
          },
          "indices": 7,
          "material": 1,
          "mode": 4
        }
      ]
    },
    {
      "name": "Cylinder_Pot_0",
      "primitives": [
        {
          "attributes": {
            "NORMAL": 9,
            "POSITION": 8,
            "TEXCOORD_0": 10
          },
          "indices": 11,
          "material": 0,
          "mode": 4
        }
      ]
    },
    {
      "name": "Cylinder_trees_0",
      "primitives": [
        {
          "attributes": {
            "NORMAL": 13,
            "POSITION": 12,
            "TEXCOORD_0": 14
          },
          "indices": 15,
          "material": 1,
          "mode": 4
        }
      ]
    }
  ],
  "nodes": [
    {
      "children": [
        1
      ],
      "matrix": [
        1.0,
        0.0,
        0.0,
        0.0,
        0.0,
        2.220446049250313e-16,
        -1.0,
        0.0,
        0.0,
        1.0,
        2.220446049250313e-16,
        0.0,
        0.0,
        0.0,
        0.0,
        1.0
      ],
      "name": "Sketchfab_model"
    },
    {
      "children": [
        2
      ],
      "matrix": [
        1.0,
        0.0,
        0.0,
        0.0,
        0.0,
        0.0,
        1.0,
        0.0,
        0.0,
        -1.0,
        0.0,
        0.0,
        0.0,
        0.0,
        0.0,
        1.0
      ],
      "name": "748a828abc5a4fdaa3cae04974f1a99b.fbx"
    },
    {
      "children": [
        3,
        6
      ],
      "name": "RootNode"
    },
    {
      "children": [
        4,
        5
      ],
      "matrix": [
        100.0,
        0.0,
        0.0,
        0.0,
        0.0,
        -1.629206793918314e-05,
        -99.99999999999868,
        0.0,
        0.0,
        99.99999999999868,
        -1.629206793918314e-05,
        0.0,
        0.0,
        0.0,
        -415.515625,
        1.0
      ],
      "name": "Cube"
    },
    {
      "mesh": 0,
      "name": "Cube_Pot_0"
    },
    {
      "mesh": 1,
      "name": "Cube_trees_0"
    },
    {
      "children": [
        7,
        8
      ],
      "matrix": [
        100.0,
        0.0,
        0.0,
        0.0,
        0.0,
        -1.629206793918314e-05,
        -99.99999999999868,
        0.0,
        0.0,
        99.99999999999868,
        -1.629206793918314e-05,
        0.0,
        0.0,
        135.7847900390625,
        0.0,
        1.0
      ],
      "name": "Cylinder"
    },
    {
      "mesh": 2,
      "name": "Cylinder_Pot_0"
    },
    {
      "mesh": 3,
      "name": "Cylinder_trees_0"
    }
  ],
  "samplers": [
    {
      "magFilter": 9729,
      "minFilter": 9987,
      "wrapS": 10497,
      "wrapT": 10497
    },
    {
      "magFilter": 9729,
      "minFilter": 9987,
      "wrapS": 33071,
      "wrapT": 33071
    }
  ],
  "scene": 0,
  "scenes": [
    {
      "name": "Sketchfab_Scene",
      "nodes": [
        0
      ]
    }
  ],
  "textures": [
    {
      "sampler": 0,
      "source": 0
    },
    {
      "sampler": 1,
      "source": 1
    }
  ]
}
