{
  "accessors": [
    {
      "bufferView": 2,
      "componentType": 5126,
      "count": 7602,
      "max": [
        23.221696853637695,
        2.611105442047119,
        20.659114837646484
      ],
      "min": [
        -9.076786041259766,
        -2.613309860229492,
        -20.6419677734375
      ],
      "type": "VEC3"
    },
    {
      "bufferView": 2,
      "byteOffset": 91224,
      "componentType": 5126,
      "count": 7602,
      "max": [
        0.9999663829803467,
        0.9999994039535522,
        0.9982103705406189
      ],
      "min": [
        -0.9999663829803467,
        -0.9999994039535522,
        -0.9982103705406189
      ],
      "type": "VEC3"
    },
    {
      "bufferView": 1,
      "componentType": 5126,
      "count": 7602,
      "max": [
        1.0,
        1.0
      ],
      "min": [
        0.0,
        0.0
      ],
      "type": "VEC2"
    },
    {
      "bufferView": 0,
      "componentType": 5125,
      "count": 22506,
      "type": "SCALAR"
    },
    {
      "bufferView": 2,
      "byteOffset": 182448,
      "componentType": 5126,
      "count": 18592,
      "max": [
        11.179752349853516,
        11.311012268066406,
        34.862735748291016
      ],
      "min": [
        -6.12381649017334,
        -1.7755852937698364,
        -74.74958801269531
      ],
      "type": "VEC3"
    },
    {
      "bufferView": 2,
      "byteOffset": 405552,
      "componentType": 5126,
      "count": 18592,
      "max": [
        0.9994081854820251,
        0.9999890327453613,
        1.0
      ],
      "min": [
        -0.9994081854820251,
        -0.9999890327453613,
        -1.0
      ],
      "type": "VEC3"
    },
    {
      "bufferView": 1,
      "byteOffset": 60816,
      "componentType": 5126,
      "count": 18592,
      "max": [
        1.0,
        1.0
      ],
      "min": [
        0.0,
        0.0
      ],
      "type": "VEC2"
    },
    {
      "bufferView": 0,
      "byteOffset": 90024,
      "componentType": 5125,
      "count": 55752,
      "type": "SCALAR"
    }
  ],
  "asset": {
    "extras": {
      "author": "minchou19 (https://sketchfab.com/minchou19)",
      "license": "CC-BY-4.0 (http://creativecommons.org/licenses/by/4.0/)",
      "source": "https://sketchfab.com/3d-models/vietnamese-bamboo-furniture-ebbdf5c55a2b41f28a52fcd4872aaa3f",
      "title": "VIETNAMESE BAMBOO FURNITURE"
    },
    "generator": "Sketchfab-16.95.0",
    "version": "2.0"
  },
  "bufferViews": [
    {
      "buffer": 0,
      "byteLength": 313032,
      "name": "floatBufferViews",
      "target": 34963
    },
    {
      "buffer": 0,
      "byteLength": 209552,
      "byteOffset": 313032,
      "byteStride": 8,
      "name": "floatBufferViews",
      "target": 34962
    },
    {
      "buffer": 0,
      "byteLength": 628656,
      "byteOffset": 522584,
      "byteStride": 12,
      "name": "floatBufferViews",
      "target": 34962
    }
  ],
  "buffers": [
    {
      "byteLength": 1151240,
      "uri": "scene.bin"
    }
  ],
  "extensionsUsed": [
    "KHR_materials_specular"
  ],
  "materials": [
    {
      "doubleSided": true,
      "extensions": {
        "KHR_materials_specular": {
          "specularColorFactor": [
            1.0,
            1.0,
            1.0
          ],
          "specularFactor": 0.5409540295741854
        }
      },
      "name": "Material.001",
      "pbrMetallicRoughness": {
        "baseColorFactor": [
          0.4658348552926145,
          0.20682745867053448,
          0.028003654435207418,
          1.0
        ],
        "metallicFactor": 0.06552400921602808,
        "roughnessFactor": 0.40685838280649994
      }
    }
  ],
  "meshes": [
    {
      "name": "Object_0",
      "primitives": [
        {
          "attributes": {
            "NORMAL": 1,
            "POSITION": 0,
            "TEXCOORD_0": 2
          },
          "indices": 3,
          "material": 0,
          "mode": 4
        }
      ]
    },
    {
      "name": "Object_1",
      "primitives": [
        {
          "attributes": {
            "NORMAL": 5,
            "POSITION": 4,
            "TEXCOORD_0": 6
          },
          "indices": 7,
          "material": 0,
          "mode": 4
        }
      ]
    }
  ],
  "nodes": [
    {
      "children": [
        1
      ],
      "matrix": [
        1.0,
        0.0,
        0.0,
        0.0,
        0.0,
        2.220446049250313e-16,
        -1.0,
        0.0,
        0.0,
        1.0,
        2.220446049250313e-16,
        0.0,
        0.0,
        0.0,
        0.0,
        1.0
      ],
      "name": "Sketchfab_model"
    },
    {
      "children": [
        2
      ],
      "name": "root"
    },
    {
      "children": [
        3,
        5
      ],
      "matrix": [
        1.0,
        0.0,
        0.0,
        0.0,
        0.0,
        2.220446049250313e-16,
        1.0,
        0.0,
        0.0,
        -1.0,
        2.220446049250313e-16,
        0.0,
        0.0,
        0.0,
        0.0,
        1.0
      ],
      "name": "GLTF_SceneRootNode"
    },
    {
      "children": [
        4
      ],
      "matrix": [
        1.1552223921564817e-07,
        -0.38762834668157764,
        0.0,
        0.0,
        0.0,
        0.0,
        -2.847419500350952,
        0.0,
        0.38762834668157764,
        1.1552223921564817e-07,
        0.0,
        0.0,
        -0.0033249855041503906,
        5.793099403381348,
        -0.0031385421752929688,
        1.0
      ],
      "name": "BAN_0"
    },
    {
      "mesh": 0,
      "name": "Object_4"
    },
    {
      "children": [
        6
      ],
      "matrix": [
        9.952219069344012e-08,
        -0.3876283466815811,
        2.777851063758031e-08,
        0.0,
        1.0638632812839495,
        4.6241947742388693e-07,
        2.641210466758452,
        0.0,
        -0.3595564497403672,
        -8.193612293043186e-08,
        0.14482711970208736,
        0.0,
        -11.986303329467773,
        1.1252957582473755,
        -9.352547645568848,
        1.0
      ],
      "name": "GHE_1"
    },
    {
      "mesh": 1,
      "name": "Object_6"
    }
  ],
  "scene": 0,
  "scenes": [
    {
      "name": "Sketchfab_Scene",
      "nodes": [
        0
      ]
    }
  ]
}
