{
  "accessors": [
    {
      "bufferView": 2,
      "componentType": 5126,
      "count": 2204,
      "max": [
        18.22383689880371,
        4.083751201629639,
        9.364645957946777
      ],
      "min": [
        -3.6210498809814453,
        -3.432610034942627,
        0.0
      ],
      "type": "VEC3"
    },
    {
      "bufferView": 2,
      "byteOffset": 26448,
      "componentType": 5126,
      "count": 2204,
      "max": [
        0.9996172189712524,
        0.9998993873596191,
        0.9979785084724426
      ],
      "min": [
        -0.9987468719482422,
        -0.9994213581085205,
        -0.9997608661651611
      ],
      "type": "VEC3"
    },
    {
      "bufferView": 1,
      "componentType": 5126,
      "count": 2204,
      "max": [
        1.0,
        1.0
      ],
      "min": [
        0.0,
        0.0
      ],
      "type": "VEC2"
    },
    {
      "bufferView": 0,
      "componentType": 5125,
      "count": 10572,
      "type": "SCALAR"
    },
    {
      "bufferView": 2,
      "byteOffset": 52896,
      "componentType": 5126,
      "count": 1053,
      "max": [
        20.79623031616211,
        7.049117088317871,
        11.543791770935059
      ],
      "min": [
        -6.300395965576172,
        -6.104344844818115,
        -0.6501389741897583
      ],
      "type": "VEC3"
    },
    {
      "bufferView": 2,
      "byteOffset": 65532,
      "componentType": 5126,
      "count": 1053,
      "max": [
        0.9993297457695007,
        0.994716465473175,
        0.40114814043045044
      ],
      "min": [
        -0.9994415044784546,
        -0.9988153576850891,
        -0.9984287619590759
      ],
      "type": "VEC3"
    },
    {
      "bufferView": 1,
      "byteOffset": 17632,
      "componentType": 5126,
      "count": 1053,
      "max": [
        1.0,
        1.0
      ],
      "min": [
        0.0,
        0.0
      ],
      "type": "VEC2"
    },
    {
      "bufferView": 0,
      "byteOffset": 42288,
      "componentType": 5125,
      "count": 2808,
      "type": "SCALAR"
    },
    {
      "bufferView": 2,
      "byteOffset": 78168,
      "componentType": 5126,
      "count": 1188,
      "max": [
        20.69462013244629,
        6.43338680267334,
        11.84425163269043
      ],
      "min": [
        -6.70051908493042,
        -6.516386985778809,
        -0.5170080065727234
      ],
      "type": "VEC3"
    },
    {
      "bufferView": 2,
      "byteOffset": 92424,
      "componentType": 5126,
      "count": 1188,
      "max": [
        0.9846410155296326,
        0.9961508512496948,
        0.46060827374458313
      ],
      "min": [
        -0.9943618774414063,
        -0.997982382774353,
        -0.9998592138290405
      ],
      "type": "VEC3"
    },
    {
      "bufferView": 1,
      "byteOffset": 26056,
      "componentType": 5126,
      "count": 1188,
      "max": [
        1.0,
        1.0
      ],
      "min": [
        0.0,
        0.0
      ],
      "type": "VEC2"
    },
    {
      "bufferView": 0,
      "byteOffset": 53520,
      "componentType": 5125,
      "count": 3168,
      "type": "SCALAR"
    },
    {
      "bufferView": 2,
      "byteOffset": 106680,
      "componentType": 5126,
      "count": 1098,
      "max": [
        20.866666793823242,
        6.781349182128906,
        11.261960983276367
      ],
      "min": [
        -6.19043493270874,
        -6.849760055541992,
        -0.20590999722480774
      ],
      "type": "VEC3"
    },
    {
      "bufferView": 2,
      "byteOffset": 119856,
      "componentType": 5126,
      "count": 1098,
      "max": [
        0.9973885416984558,
        0.9989843368530273,
        0.41496020555496216
      ],
      "min": [
        -0.9941074848175049,
        -0.9973432421684265,
        -0.9993939995765686
      ],
      "type": "VEC3"
    },
    {
      "bufferView": 1,
      "byteOffset": 35560,
      "componentType": 5126,
      "count": 1098,
      "max": [
        1.0,
        1.0
      ],
      "min": [
        0.0,
        0.0
      ],
      "type": "VEC2"
    },
    {
      "bufferView": 0,
      "byteOffset": 66192,
      "componentType": 5125,
      "count": 2928,
      "type": "SCALAR"
    },
    {
      "bufferView": 2,
      "byteOffset": 133032,
      "componentType": 5126,
      "count": 1062,
      "max": [
        21.360445022583008,
        6.36152982711792,
        11.79300308227539
      ],
      "min": [
        -6.180292129516602,
        -6.972372055053711,
        -0.39855700731277466
      ],
      "type": "VEC3"
    },
    {
      "bufferView": 2,
      "byteOffset": 145776,
      "componentType": 5126,
      "count": 1062,
      "max": [
        0.9968452453613281,
        0.9850338697433472,
        0.5663822889328003
      ],
      "min": [
        -0.9949314594268799,
        -0.9987462162971497,
        -0.9978252649307251
      ],
      "type": "VEC3"
    },
    {
      "bufferView": 1,
      "byteOffset": 44344,
      "componentType": 5126,
      "count": 1062,
      "max": [
        1.0,
        1.0
      ],
      "min": [
        0.0,
        0.0
      ],
      "type": "VEC2"
    },
    {
      "bufferView": 0,
      "byteOffset": 77904,
      "componentType": 5125,
      "count": 2832,
      "type": "SCALAR"
    },
    {
      "bufferView": 2,
      "byteOffset": 158520,
      "componentType": 5126,
      "count": 1008,
      "max": [
        20.543275833129883,
        6.499329090118408,
        11.328267097473145
      ],
      "min": [
        -6.15841007232666,
        -6.618031978607178,
        -0.11070799827575684
      ],
      "type": "VEC3"
    },
    {
      "bufferView": 2,
      "byteOffset": 170616,
      "componentType": 5126,
      "count": 1008,
      "max": [
        0.9980514645576477,
        0.9995705485343933,
        0.45562800765037537
      ],
      "min": [
        -0.9984267354011536,
        -0.9929372668266296,
        -0.9998515248298645
      ],
      "type": "VEC3"
    },
    {
      "bufferView": 1,
      "byteOffset": 52840,
      "componentType": 5126,
      "count": 1008,
      "max": [
        1.0,
        1.0
      ],
      "min": [
        0.0,
        0.0
      ],
      "type": "VEC2"
    },
    {
      "bufferView": 0,
      "byteOffset": 89232,
      "componentType": 5125,
      "count": 2688,
      "type": "SCALAR"
    },
    {
      "bufferView": 2,
      "byteOffset": 182712,
      "componentType": 5126,
      "count": 1089,
      "max": [
        21.524648666381836,
        6.473176002502441,
        11.5144681930542
      ],
      "min": [
        -6.104014873504639,
        -6.287351131439209,
        -0.08046399801969528
      ],
      "type": "VEC3"
    },
    {
      "bufferView": 2,
      "byteOffset": 195780,
      "componentType": 5126,
      "count": 1089,
      "max": [
        0.9883014559745789,
        0.9985582232475281,
        0.5302321314811707
      ],
      "min": [
        -0.9994320273399353,
        -0.9913620948791504,
        -0.9998714923858643
      ],
      "type": "VEC3"
    },
    {
      "bufferView": 1,
      "byteOffset": 60904,
      "componentType": 5126,
      "count": 1089,
      "max": [
        1.0,
        1.0
      ],
      "min": [
        0.0,
        0.0
      ],
      "type": "VEC2"
    },
    {
      "bufferView": 0,
      "byteOffset": 99984,
      "componentType": 5125,
      "count": 2904,
      "type": "SCALAR"
    }
  ],
  "asset": {
    "extras": {
      "author": "Sereib (https://sketchfab.com/Sereib)",
      "license": "CC-BY-4.0 (http://creativecommons.org/licenses/by/4.0/)",
      "source": "https://sketchfab.com/3d-models/trees-low-poly-4k-tris-tree-6fad6d1b2d7e4b2187ea6e6a721606ff",
      "title": "Trees (low-Poly, 4k Tris / Tree)"
    },
    "generator": "Sketchfab-16.25.0",
    "version": "2.0"
  },
  "bufferViews": [
    {
      "buffer": 0,
      "byteLength": 111600,
      "name": "floatBufferViews",
      "target": 34963
    },
    {
      "buffer": 0,
      "byteLength": 69616,
      "byteOffset": 111600,
      "byteStride": 8,
      "name": "floatBufferViews",
      "target": 34962
    },
    {
      "buffer": 0,
      "byteLength": 208848,
      "byteOffset": 181216,
      "byteStride": 12,
      "name": "floatBufferViews",
      "target": 34962
    }
  ],
  "buffers": [
    {
      "byteLength": 390064,
      "uri": "scene.bin"
    }
  ],
  "images": [
    {
      "uri": "textures/nature_bark_linden_02_m_0001.jpg_baseColor.jpeg"
    },
    {
      "uri": "textures/nature_leaves_standard_01_m_0001.jpg_baseColor.png"
    },
    {
      "uri": "textures/nature_leaves_standard_01_m_0002.jpg_baseColor.png"
    },
    {
      "uri": "textures/nature_leaves_standard_01_m_0003.jpg_baseColor.png"
    },
    {
      "uri": "textures/nature_leaves_standard_01_m_0004.jpg_baseColor.png"
    },
    {
      "uri": "textures/nature_leaves_standard_01_m_0005.jpg_baseColor.png"
    },
    {
      "uri": "textures/nature_leaves_standard_01_m_0006.jpg_baseColor.png"
    }
  ],
  "materials": [
    {
      "doubleSided": true,
      "name": "nature_bark_linden_02_m_0001.jpg",
      "pbrMetallicRoughness": {
        "baseColorTexture": {
          "index": 0
        },
        "metallicFactor": 0.0,
        "roughnessFactor": 0.9
      }
    },
    {
      "alphaMode": "BLEND",
      "doubleSided": true,
      "name": "nature_leaves_standard_01_m_0001.jpg",
      "pbrMetallicRoughness": {
        "baseColorTexture": {
          "index": 1
        },
        "metallicFactor": 0.0,
        "roughnessFactor": 0.9
      }
    },
    {
      "alphaMode": "BLEND",
      "doubleSided": true,
      "name": "nature_leaves_standard_01_m_0002.jpg",
      "pbrMetallicRoughness": {
        "baseColorTexture": {
          "index": 2
        },
        "metallicFactor": 0.0,
        "roughnessFactor": 0.9
      }
    },
    {
      "alphaMode": "BLEND",
      "doubleSided": true,
      "name": "nature_leaves_standard_01_m_0003.jpg",
      "pbrMetallicRoughness": {
        "baseColorTexture": {
          "index": 3
        },
        "metallicFactor": 0.0,
        "roughnessFactor": 0.9
      }
    },
    {
      "alphaMode": "BLEND",
      "doubleSided": true,
      "name": "nature_leaves_standard_01_m_0004.jpg",
      "pbrMetallicRoughness": {
        "baseColorTexture": {
          "index": 4
        },
        "metallicFactor": 0.0,
        "roughnessFactor": 0.9
      }
    },
    {
      "alphaMode": "BLEND",
      "doubleSided": true,
      "name": "nature_leaves_standard_01_m_0005.jpg",
      "pbrMetallicRoughness": {
        "baseColorTexture": {
          "index": 5
        },
        "metallicFactor": 0.0,
        "roughnessFactor": 0.9
      }
    },
    {
      "alphaMode": "BLEND",
      "doubleSided": true,
      "name": "nature_leaves_standard_01_m_0006.jpg",
      "pbrMetallicRoughness": {
        "baseColorTexture": {
          "index": 6
        },
        "metallicFactor": 0.0,
        "roughnessFactor": 0.9
      }
    }
  ],
  "meshes": [
    {
      "name": "Object_0",
      "primitives": [
        {
          "attributes": {
            "NORMAL": 1,
            "POSITION": 0,
            "TEXCOORD_0": 2
          },
          "indices": 3,
          "material": 0,
          "mode": 4
        }
      ]
    },
    {
      "name": "Object_1",
      "primitives": [
        {
          "attributes": {
            "NORMAL": 5,
            "POSITION": 4,
            "TEXCOORD_0": 6
          },
          "indices": 7,
          "material": 1,
          "mode": 4
        }
      ]
    },
    {
      "name": "Object_2",
      "primitives": [
        {
          "attributes": {
            "NORMAL": 9,
            "POSITION": 8,
            "TEXCOORD_0": 10
          },
          "indices": 11,
          "material": 2,
          "mode": 4
        }
      ]
    },
    {
      "name": "Object_3",
      "primitives": [
        {
          "attributes": {
            "NORMAL": 13,
            "POSITION": 12,
            "TEXCOORD_0": 14
          },
          "indices": 15,
          "material": 3,
          "mode": 4
        }
      ]
    },
    {
      "name": "Object_4",
      "primitives": [
        {
          "attributes": {
            "NORMAL": 17,
            "POSITION": 16,
            "TEXCOORD_0": 18
          },
          "indices": 19,
          "material": 4,
          "mode": 4
        }
      ]
    },
    {
      "name": "Object_5",
      "primitives": [
        {
          "attributes": {
            "NORMAL": 21,
            "POSITION": 20,
            "TEXCOORD_0": 22
          },
          "indices": 23,
          "material": 5,
          "mode": 4
        }
      ]
    },
    {
      "name": "Object_6",
      "primitives": [
        {
          "attributes": {
            "NORMAL": 25,
            "POSITION": 24,
            "TEXCOORD_0": 26
          },
          "indices": 27,
          "material": 6,
          "mode": 4
        }
      ]
    }
  ],
  "nodes": [
    {
      "children": [
        1
      ],
      "matrix": [
        1.0,
        0.0,
        0.0,
        0.0,
        0.0,
        2.220446049250313e-16,
        -1.0,
        0.0,
        0.0,
        1.0,
        2.220446049250313e-16,
        0.0,
        0.0,
        0.0,
        0.0,
        1.0
      ],
      "name": "Sketchfab_model"
    },
    {
      "children": [
        2,
        3,
        4,
        5,
        6,
        7,
        8
      ],
      "name": "linden.obj.cleaner.materialmerger.gles"
    },
    {
      "mesh": 0,
      "name": "Object_2"
    },
    {
      "mesh": 1,
      "name": "Object_3"
    },
    {
      "mesh": 2,
      "name": "Object_4"
    },
    {
      "mesh": 3,
      "name": "Object_5"
    },
    {
      "mesh": 4,
      "name": "Object_6"
    },
    {
      "mesh": 5,
      "name": "Object_7"
    },
    {
      "mesh": 6,
      "name": "Object_8"
    }
  ],
  "samplers": [
    {
      "magFilter": 9729,
      "minFilter": 9987,
      "wrapS": 10497,
      "wrapT": 10497
    }
  ],
  "scene": 0,
  "scenes": [
    {
      "name": "Sketchfab_Scene",
      "nodes": [
        0
      ]
    }
  ],
  "textures": [
    {
      "sampler": 0,
      "source": 0
    },
    {
      "sampler": 0,
      "source": 1
    },
    {
      "sampler": 0,
      "source": 2
    },
    {
      "sampler": 0,
      "source": 3
    },
    {
      "sampler": 0,
      "source": 4
    },
    {
      "sampler": 0,
      "source": 5
    },
    {
      "sampler": 0,
      "source": 6
    }
  ]
}
